<svg width="84" height="84" viewBox="0 0 84 84" fill="none" xmlns="http://www.w3.org/2000/svg">
<path fill-rule="evenodd" clip-rule="evenodd" d="M4 0C1.79086 0 0 1.79086 0 4V79.75C0 81.9591 1.79086 83.75 4 83.75H79.75C81.9591 83.75 83.75 81.9591 83.75 79.75V4C83.75 1.79086 81.9591 0 79.75 0H4ZM37.0714 20.4444C37.0714 17.7102 39.2815 15.5 42 15.5C44.7185 15.5 46.9286 17.7102 46.9286 20.4444C46.9286 23.1787 44.7185 25.3889 42 25.3889C39.2815 25.3889 37.0714 23.1787 37.0714 20.4444ZM42 12.5C37.6177 12.5 34.0714 16.0603 34.0714 20.4444C34.0714 20.6906 34.0826 20.9342 34.1045 21.1747L27.0683 24.1598C25.6618 22.4701 23.5742 21.3889 21.2143 21.3889C16.9029 21.3889 13.5 24.9976 13.5 29.3333C13.5 33.669 16.9029 37.2778 21.2143 37.2778C22.3305 37.2778 23.3859 37.0359 24.3371 36.6021L26.7663 40.9904L22.9579 46.4758C22.3976 46.3462 21.814 46.2778 21.2143 46.2778C16.952 46.2778 13.5 49.7369 13.5 54C13.5 58.2631 16.952 61.7222 21.2143 61.7222C23.5564 61.7222 25.6538 60.6778 27.0683 59.0294L34.1381 62.5207C34.0941 62.8594 34.0714 63.2049 34.0714 63.5556C34.0714 67.9397 37.6177 71.5 42 71.5C46.3823 71.5 49.9286 67.9397 49.9286 63.5556C49.9286 62.0452 49.5077 60.6326 48.7767 59.4297L58.9952 49.5897C60.1098 50.2388 61.4009 50.6111 62.7857 50.6111C67.0971 50.6111 70.5 47.0024 70.5 42.6667C70.5 38.331 67.0971 34.7222 62.7857 34.7222C61.0983 34.7222 59.5501 35.275 58.2906 36.2078L48.5429 24.9327C49.4172 23.6553 49.9286 22.1093 49.9286 20.4444C49.9286 16.0603 46.3823 12.5 42 12.5ZM28.5265 26.8L34.9467 24.0763C35.4191 24.9956 36.0653 25.8108 36.842 26.4781L32.3447 32.9557L28.7536 31.0192C28.8683 30.4747 28.9286 29.9104 28.9286 29.3333C28.9286 28.4506 28.7875 27.5981 28.5265 26.8ZM35.0019 34.3887L39.4572 27.9716C40.2552 28.2422 41.1104 28.3889 42 28.3889C43.6316 28.3889 45.1473 27.8954 46.4073 27.0495L56.2544 38.4397C55.9654 38.913 55.7236 39.4194 55.5355 39.9512L48.6059 39.2979C48.2534 35.9699 45.4228 33.3889 42 33.3889C40.0683 33.3889 38.3253 34.2109 37.1098 35.5254L35.0019 34.3887ZM48.2388 42.2766L55.0753 42.9212C55.1294 44.6751 55.7398 46.2991 56.7382 47.5983L46.7632 57.2039C45.8177 56.4908 44.7077 55.9847 43.5 55.753V46.4417C45.6923 45.9377 47.4737 44.3531 48.2388 42.2766ZM40.5 46.4417V55.753C39.8664 55.8746 39.2596 56.0717 38.6894 56.3346L30.2943 41.1692L33.2802 36.8686L35.6254 38.1333C35.4508 38.7249 35.3571 39.3513 35.3571 40C35.3571 43.1444 37.5588 45.7656 40.5 46.4417ZM28.3865 43.9171L36.2372 58.0992C35.7973 58.5656 35.4132 59.0853 35.0955 59.6476L28.5446 56.4126C28.7938 55.6534 28.9286 54.8424 28.9286 54C28.9286 51.425 27.6691 49.1432 25.7323 47.74L28.3865 43.9171ZM30.6229 35.4356L28.6741 38.2425L26.7847 34.8294C27.0807 34.5106 27.351 34.1667 27.5924 33.8014L30.6229 35.4356ZM16.5 29.3333C16.5 26.5507 18.6616 24.3889 21.2143 24.3889C23.767 24.3889 25.9286 26.5507 25.9286 29.3333C25.9286 32.116 23.767 34.2778 21.2143 34.2778C18.6616 34.2778 16.5 32.116 16.5 29.3333ZM38.3571 40C38.3571 38.0144 39.9793 36.3889 42 36.3889C44.0207 36.3889 45.6429 38.0144 45.6429 40C45.6429 41.9856 44.0207 43.6111 42 43.6111C39.9793 43.6111 38.3571 41.9856 38.3571 40ZM58.0714 42.6667C58.0714 39.884 60.233 37.7222 62.7857 37.7222C65.3384 37.7222 67.5 39.884 67.5 42.6667C67.5 45.4493 65.3384 47.6111 62.7857 47.6111C60.233 47.6111 58.0714 45.4493 58.0714 42.6667ZM16.5 54C16.5 51.3902 18.6125 49.2778 21.2143 49.2778C23.8161 49.2778 25.9286 51.3902 25.9286 54C25.9286 56.6098 23.8161 58.7222 21.2143 58.7222C18.6125 58.7222 16.5 56.6098 16.5 54ZM37.0714 63.5556C37.0714 60.8213 39.2815 58.6111 42 58.6111C44.7185 58.6111 46.9286 60.8213 46.9286 63.5556C46.9286 66.2898 44.7185 68.5 42 68.5C39.2815 68.5 37.0714 66.2898 37.0714 63.5556Z" fill="white" fill-opacity="0.25"/>
</svg>
