<svg width="84" height="84" viewBox="0 0 84 84" fill="none" xmlns="http://www.w3.org/2000/svg">
<path fill-rule="evenodd" clip-rule="evenodd" d="M4 0.249985C1.79086 0.249985 0 2.04085 0 4.24999V80C0 82.2091 1.79086 84 4 84H79.75C81.9591 84 83.75 82.2091 83.75 80V4.24998C83.75 2.04085 81.9591 0.249985 79.75 0.249985H4ZM28.789 36.3082C30.7665 28.5541 35.7101 24.677 43.6198 24.677C50.9709 24.677 54.3375 28.0257 57.2455 30.9198L57.2495 30.9238C59.0338 32.6989 60.6459 34.3028 62.8997 34.855C66.8546 35.8234 70.3151 34.369 73.2812 30.492C71.3038 38.2473 66.3602 42.1244 58.4505 42.1244C51.0987 42.1244 47.7334 38.775 44.8267 35.8822L44.826 35.8816L44.822 35.8776C43.0377 34.1025 41.4256 32.4986 39.1706 31.9464C35.2157 30.978 31.7552 32.4311 28.789 36.3082ZM13.9583 53.7567C15.9357 46.0014 20.8793 42.1244 28.789 42.1244C36.1414 42.1244 39.5067 45.4742 42.4135 48.3683L42.4209 48.3757C44.2039 50.1483 45.8154 51.7505 48.069 52.3024C52.0239 53.2719 55.4844 51.8176 58.4505 47.9405C56.4731 55.6958 51.5295 59.5729 43.6198 59.5729C36.2687 59.5729 32.9021 56.223 29.994 53.3289L29.9905 53.3253C28.206 51.5512 26.5938 49.9484 24.3398 49.3949C20.385 48.4253 16.9245 49.8797 13.9583 53.7567Z" fill="white" fill-opacity="0.25"/>
</svg>
