<svg width="150" height="150" viewBox="0 0 150 150" fill="none" xmlns="http://www.w3.org/2000/svg">
<path d="M150 75C150 116.421 116.421 150 75 150C33.5786 150 0 116.421 0 75C0 33.5786 33.5786 0 75 0C116.421 0 150 33.5786 150 75Z" fill="#D9D9D9"/>
<path d="M45 51C51.5507 51.8824 64.3003 54.1176 62.8923 56" stroke="#303030" stroke-width="2"/>
<path d="M45 76C51.5507 76.8824 64.3003 79.1176 62.8923 81" stroke="#303030" stroke-width="2"/>
<path d="M45 56C51.5507 56.8824 64.3003 59.1176 62.8923 61" stroke="#303030" stroke-width="2"/>
<path d="M45 81C51.5507 81.8824 64.3003 84.1176 62.8923 86" stroke="#303030" stroke-width="2"/>
<path d="M45 61C51.5507 61.8824 64.3003 64.1176 62.8923 66" stroke="#303030" stroke-width="2"/>
<path d="M45 86C51.5507 86.8824 64.3003 89.1176 62.8923 91" stroke="#303030" stroke-width="2"/>
<path d="M45 91C51.5507 91.8824 64.3003 94.1176 62.8923 96" stroke="#303030" stroke-width="2"/>
<path d="M45 66C51.5507 66.8824 64.3003 69.1176 62.8923 71" stroke="#303030" stroke-width="2"/>
<path d="M45 71C51.5507 71.8824 64.3003 74.1176 62.8923 76" stroke="#303030" stroke-width="2"/>
<path d="M105 51C98.4493 51.8824 85.6997 54.1176 87.1077 56" stroke="#303030" stroke-width="2"/>
<path d="M105 76C98.4493 76.8824 85.6997 79.1176 87.1077 81" stroke="#303030" stroke-width="2"/>
<path d="M105 56C98.4493 56.8824 85.6997 59.1176 87.1077 61" stroke="#303030" stroke-width="2"/>
<path d="M105 81C98.4493 81.8824 85.6997 84.1176 87.1077 86" stroke="#303030" stroke-width="2"/>
<path d="M105 61C98.4493 61.8824 85.6997 64.1176 87.1077 66" stroke="#303030" stroke-width="2"/>
<path d="M105 86C98.4493 86.8824 85.6997 89.1176 87.1077 91" stroke="#303030" stroke-width="2"/>
<path d="M105 91C98.4493 91.8824 85.6997 94.1176 87.1077 96" stroke="#303030" stroke-width="2"/>
<path d="M105 66C98.4493 66.8824 85.6997 69.1176 87.1077 71" stroke="#303030" stroke-width="2"/>
<path d="M105 71C98.4493 71.8824 85.6997 74.1176 87.1077 76" stroke="#303030" stroke-width="2"/>
<path d="M123.583 43.8333V105.15L119.167 105.667V35C101.964 35.5256 86.0196 38.3655 74.9912 45.229C63.9672 38.3655 48.0407 35.5256 30.8333 35V105.667L26.4167 105.15V43.8333H22V110.083H62.0018C68.534 110.083 69.2495 114.5 74.9912 114.5C80.7505 114.5 81.4439 110.083 87.985 110.083H128V43.8333H123.583ZM70.5833 104.099C61.9885 100.689 52.3116 98.494 39.6667 97.5444V44.3192C50.0547 45.1893 61.7323 47.3004 70.5833 52.808V104.099ZM110.333 97.5444C97.6884 98.494 88.0115 100.689 79.4167 104.099V52.808C88.2677 47.3004 99.9453 45.1893 110.333 44.3192V97.5444Z" fill="#453D4B"/>
</svg>
