<svg width="84" height="84" viewBox="0 0 84 84" fill="none" xmlns="http://www.w3.org/2000/svg">
<path fill-rule="evenodd" clip-rule="evenodd" d="M4 0C1.79086 0 0 1.79086 0 4V79.75C0 81.9591 1.79086 83.75 4 83.75H79.75C81.9591 83.75 83.75 81.9591 83.75 79.75V4C83.75 1.79086 81.9591 0 79.75 0H4ZM33.88 30.48H42V12.56H33.88C29.4082 12.56 25.76 16.5856 25.76 21.52C25.76 26.4544 29.4082 30.48 33.88 30.48ZM33.88 50.96H42V33.04H33.88C29.4082 33.04 25.76 37.0656 25.76 42C25.76 46.9344 29.4082 50.96 33.88 50.96ZM42 62.48V53.52H33.88C29.4082 53.52 25.76 57.5456 25.76 62.48C25.76 67.4144 29.4082 71.44 33.88 71.44C38.3518 71.44 42 67.4144 42 62.48ZM52.44 30.48C56.9118 30.48 60.56 26.4544 60.56 21.52C60.56 16.5856 56.9118 12.56 52.44 12.56H44.32V30.48H52.44ZM46.6983 35.6643C48.2211 33.984 50.2865 33.04 52.44 33.04C54.5936 33.04 56.6589 33.984 58.1817 35.6643C59.7045 37.3446 60.56 39.6237 60.56 42C60.56 44.3763 59.7045 46.6553 58.1817 48.3357C56.6589 50.016 54.5936 50.96 52.44 50.96C50.2865 50.96 48.2211 50.016 46.6983 48.3357C45.1755 46.6553 44.32 44.3763 44.32 42C44.32 39.6237 45.1755 37.3446 46.6983 35.6643Z" fill="white" fill-opacity="0.25"/>
</svg>
