<svg width="84" height="84" viewBox="0 0 84 84" fill="none" xmlns="http://www.w3.org/2000/svg">
<path fill-rule="evenodd" clip-rule="evenodd" d="M4 0C1.79086 0 0 1.79086 0 4V79.75C0 81.9591 1.79086 83.75 4 83.75H79.75C81.9591 83.75 83.75 81.9591 83.75 79.75V4C83.75 1.79086 81.9591 0 79.75 0H4ZM34.0652 67.7068C34.0652 68.7348 33.4481 69.6178 32.5671 70C21.2154 66.213 13 55.4217 13 42.7269C13 26.8871 25.7841 14 41.5 14C57.2159 14 70 26.8871 70 42.7269C70 55.4217 61.7846 66.213 50.4329 70C49.5519 69.6178 48.9348 68.7348 48.9348 67.7068V60.9623C48.9348 57.59 45.9609 52.7189 42.7391 52.7189V52.6802C49.625 52.4066 54.0301 50.0623 56.0932 46.4677C60.6879 46.4901 64.7263 46.9373 67.0955 47.3195C67.1674 46.9123 67.2293 46.5014 67.2826 46.0867C64.9493 45.712 61.0845 45.2836 56.6905 45.2262C56.8491 44.8302 56.9829 44.4218 57.0932 44.0021C61.5343 43.7636 65.3805 43.9409 67.4511 44.1133C67.458 43.9844 67.4665 43.856 67.4749 43.7276C67.4938 43.4417 67.5126 43.156 67.5143 42.8656C65.4363 42.6957 61.6842 42.5233 57.3485 42.7382C57.429 42.1661 57.4848 41.5828 57.4848 40.9783C57.6087 38.7301 56.8652 36.6068 55.5022 34.7333C56.1217 32.7349 57.113 28.2386 55.2543 26.49C51.9087 26.49 49.5544 28.1137 48.4391 29.1129C46.4565 28.2386 44.1022 27.739 41.5 27.739C38.8978 27.739 36.5435 28.2386 34.4382 29.1141C33.323 28.1149 30.9686 26.4912 27.623 26.4912C25.8882 28.1149 26.7556 32.6113 27.3752 34.7346C26.0121 36.6081 25.2686 38.8563 25.2686 40.9796C25.2686 41.644 25.3318 42.2823 25.4297 42.9068C21.1907 42.7082 17.5377 42.8768 15.4944 43.0454C15.4982 43.3675 15.5188 43.6859 15.5393 44.0041C15.5456 44.1004 15.5518 44.1968 15.5576 44.2932C17.5972 44.1233 21.3517 43.9497 25.7023 44.172C25.8039 44.5342 25.9241 44.8877 26.0629 45.2324C21.7235 45.3161 17.9491 45.7545 15.7224 46.1242C15.7757 46.5376 15.8376 46.9485 15.9095 47.3569C18.1659 46.9798 22.12 46.5264 26.6614 46.4739C28.7506 50.1072 33.2375 52.4603 40.2609 52.6877V52.7189C38.5868 52.7189 36.9846 54.0378 35.8273 55.7727C34.8335 56.3097 33.1817 56.4659 30.1 56.4659C28.1174 56.4659 27.0022 55.3418 25.887 53.9679C24.8957 52.594 23.2848 51.5948 22.5413 51.4699C21.7978 51.4699 21.55 51.8446 21.9217 52.0944C23.5217 53.1695 24.1653 54.8874 24.7214 56.372C24.9406 56.957 25.1461 57.5057 25.3913 57.9647C26.1348 59.4635 27.7457 60.2129 29.6043 60.2129H34.0652C34.0826 60.2091 34.0987 60.2054 34.116 60.2004C34.085 60.4602 34.0652 60.7162 34.0652 60.9623V67.7068Z" fill="white" fill-opacity="0.25"/>
</svg>
