<svg width="84" height="84" viewBox="0 0 84 84" fill="none" xmlns="http://www.w3.org/2000/svg">
<path d="M4 0C1.79086 0 0 1.79086 0 4V79.75C0 81.9591 1.79086 83.75 4 83.75H79.75C81.9591 83.75 83.75 81.9591 83.75 79.75V4C83.75 1.79086 81.9591 0 79.75 0H4ZM45.5999 62.7882C45.5999 73.0865 40.609 76.5193 33.2078 76.5193C31.2736 76.5166 29.3516 76.2127 27.5109 75.6185L28.3387 70.1163C29.6861 70.5779 31.1019 70.8084 32.5262 70.798C36.4215 70.798 38.7831 69.0451 38.7831 62.569V38.6126H45.5999V62.7882ZM61.4735 76.4706C57.9673 76.4771 54.5108 75.6422 51.3943 74.036L52.9037 68.3877C55.6556 69.9397 58.7527 70.7767 61.9117 70.8223C66.2209 70.8467 68.6555 68.8016 68.6555 65.7584C68.6555 62.7151 66.8052 61.3517 62.0821 59.5745C55.9226 57.3834 52.0029 54.0723 52.0029 48.7406C52.0029 42.6297 57.0912 38.0283 65.1984 38.0283C68.2807 37.9345 71.3418 38.5684 74.1334 39.8786L72.5022 45.3565C70.1953 44.1834 67.6402 43.5822 65.0523 43.6036C60.7188 43.6036 58.8928 45.8921 58.8928 48.0832C58.8928 50.956 61.0596 52.2951 66.0262 54.194C72.5022 56.6286 75.6185 59.9153 75.6185 65.2714C75.6185 71.2849 71.0901 76.4706 61.4735 76.4706Z" fill="white" fill-opacity="0.25"/>
</svg>
