<svg width="300" height="284" viewBox="0 0 300 284" fill="none" xmlns="http://www.w3.org/2000/svg">
<g clip-path="url(#clip0_101_3)">
<path d="M147.316 185.392C120.423 185.392 98.6229 164.754 98.6229 139.296C98.6229 113.838 120.423 93.1996 147.316 93.1996C174.208 93.1996 196.009 113.838 196.009 139.296C196.009 164.754 174.208 185.392 147.316 185.392Z" fill="#FFB6B6"/>
<path d="M175.269 192.208L177.469 171.157L133.54 163.381L107.6 223.171L152.712 272.283L184.855 212.494L175.269 192.208Z" fill="#FFB6B6"/>
<path d="M178.174 181.695L168.57 183.749C168.57 183.749 176.12 161.085 173.558 158.921C170.995 156.758 164.715 160.167 164.715 160.167L158.117 167.171L150.079 159.424C150.079 159.424 141.352 149.151 137.935 146.267C134.519 143.382 140.007 132.673 140.007 132.673C140.007 132.673 89.3159 119.733 108.178 96.458C108.178 96.458 119.237 78.2091 122.838 84.1538C126.44 90.0984 130.734 80.6571 130.734 80.6571L143.847 83.0177C143.847 83.0177 169.727 68.5719 194.29 99.4756C218.854 130.379 178.174 181.695 178.174 181.695Z" fill="#150E03"/>
<path d="M55.7368 252.477C82.3477 272.902 115.269 284 150 284C181.714 284 211.923 274.743 237.192 257.586C237.147 257.137 237.101 256.694 237.062 256.251C236.391 249.311 235.793 242.564 235.399 236.969C233.87 215.247 180.338 200.77 180.338 200.77C180.338 200.77 180.096 200.999 179.611 201.4C176.656 203.855 164.662 212.76 143.628 215.247C124.872 217.468 118.697 206.936 116.831 201.891C116.267 200.353 116.098 199.323 116.098 199.323L61.0376 223.938C57.4455 228.796 56.0413 239.259 55.765 251.02C55.7538 251.506 55.7425 251.986 55.7368 252.477Z" fill="#E1D9CE"/>
<path d="M43.9342 41.5911C72.265 14.7712 109.934 0 150 0C190.066 0 227.735 14.7712 256.066 41.5911C284.397 68.4109 300 104.071 300 142C300 176.619 287.002 209.349 263.182 235.191C260.91 237.663 258.536 240.071 256.066 242.409C255.485 242.959 254.898 243.509 254.306 244.042C252.727 245.489 251.12 246.904 249.485 248.276C248.492 249.114 247.489 249.936 246.474 250.742C245.679 251.377 244.883 252.002 244.077 252.616C244.06 252.632 244.049 252.643 244.032 252.653C241.793 254.361 239.515 256.006 237.192 257.586C211.923 274.743 181.714 284 150 284C115.269 284 82.3477 272.902 55.7368 252.477C53.5658 250.812 51.4398 249.082 49.3534 247.294C47.5094 245.713 45.7049 244.085 43.9342 242.409C43.3759 241.88 42.8177 241.347 42.2707 240.807C40.7481 239.323 39.2707 237.813 37.8271 236.281C13.3703 210.272 0 177.11 0 142C0 104.071 15.6034 68.4109 43.9342 41.5911ZM38.1936 234.951C39.6034 236.467 41.047 237.962 42.5244 239.419C44.8252 241.688 47.1992 243.888 49.6523 246.007C50.5827 246.818 51.5244 247.608 52.4774 248.393C53.5601 249.285 54.6541 250.16 55.765 251.02C64.5226 257.826 74.1147 263.698 84.3722 268.481C88.4267 270.377 92.5827 272.101 96.8346 273.644C113.351 279.644 131.278 282.932 150 282.932C168.068 282.932 185.391 279.868 201.423 274.263C208.004 271.967 214.365 269.24 220.472 266.117C221.368 265.657 222.259 265.193 223.145 264.718C227.803 262.22 232.308 259.492 236.633 256.545C236.774 256.449 236.921 256.347 237.062 256.251C240.141 254.148 243.135 251.933 246.028 249.605C247.088 248.756 248.137 247.897 249.169 247.016C250.85 245.601 252.496 244.144 254.103 242.649C257.148 239.825 260.058 236.884 262.838 233.825C285.288 209.14 298.872 177.046 298.872 142C298.872 64.2897 232.088 1.06767 150 1.06767C67.9117 1.06767 1.12781 64.2897 1.12781 142C1.12781 177.585 15.1297 210.128 38.1936 234.951Z" fill="white" fill-opacity="0.25"/>
</g>
<defs>
<clipPath id="clip0_101_3">
<rect width="300" height="284" fill="white" transform="matrix(-1 0 0 1 300 0)"/>
</clipPath>
</defs>
</svg>
