<svg width="84" height="85" viewBox="0 0 84 85" fill="none" xmlns="http://www.w3.org/2000/svg">
<path fill-rule="evenodd" clip-rule="evenodd" d="M4.04272 0.625C1.83359 0.625 0.0427246 2.41586 0.0427246 4.625V80.375C0.0427246 82.5841 1.83359 84.375 4.04273 84.375H79.7927C82.0019 84.375 83.7927 82.5841 83.7927 80.375V4.625C83.7927 2.41586 82.0019 0.625 79.7927 0.625H4.04272ZM39.4731 11.7087C40.2059 11.298 41.0549 11.0938 41.904 11.0938C42.7532 11.0938 43.6021 11.298 44.3349 11.7087L67.4171 24.7837C68.9059 25.6279 69.8343 27.2034 69.8343 28.9147V52.5734C69.8343 54.2847 68.9059 55.8603 67.4171 56.7045L44.3349 69.7794C43.5905 70.1901 42.7557 70.4167 41.8949 70.4167C41.0574 70.4167 40.2176 70.1901 39.4731 69.7794L31.7761 65.3052C30.6129 64.6664 31.1948 64.4389 31.567 64.3248C33.1025 63.8001 33.4049 63.6867 35.0566 62.774C35.2195 62.6828 35.4481 62.7045 35.611 62.8186L41.5451 66.2634C41.7544 66.3774 42.0581 66.3774 42.2675 66.2634L65.3451 53.1884C65.5545 53.0743 65.695 52.8244 65.695 52.5734V28.8924C65.695 28.6414 65.555 28.4099 65.3224 28.273L42.2675 15.2248C42.0349 15.0879 41.7544 15.0879 41.5451 15.2248L18.4902 28.273C18.2576 28.4099 18.1176 28.6409 18.1176 28.9147V52.5734C18.1176 52.8244 18.2576 53.0743 18.4902 53.1884L24.8196 56.7713C28.2394 58.4369 30.3539 56.4752 30.3539 54.4674V30.0555C30.3539 29.6904 30.6354 29.3915 31.0309 29.3915H33.9389C34.3111 29.3915 34.6113 29.6904 34.6113 30.0555V54.4897C34.6113 58.9617 32.1234 61.5396 27.773 61.5396H27.7675C26.4441 61.5396 25.3977 61.5396 22.4705 60.127L16.4183 56.7045C14.9294 55.8603 14.001 54.2847 14.001 52.5734V28.8924C14.001 27.204 14.9294 25.6056 16.4183 24.7614L39.4731 11.7087ZM37.592 36.6598C37.592 32.0965 41.5225 29.3603 48.1062 29.3603C55.5041 29.3603 59.1547 31.8901 59.62 37.2748C59.6433 37.4801 59.5728 37.6643 59.4564 37.7784C59.3169 37.9153 59.1564 38.0056 58.9703 38.0056H55.9669C55.6412 38.0056 55.3869 37.7764 55.3171 37.4798C54.5959 34.3539 52.8288 33.3532 48.1062 33.3532C42.802 33.3532 42.1721 35.1527 42.1721 36.5217C42.1721 38.1645 42.8942 38.6438 50.0827 39.5564C57.155 40.4919 60.5288 41.795 60.5288 46.6777C60.5288 51.6061 56.3425 54.4317 49.0377 54.4317C38.9412 54.4317 36.8241 49.8954 36.8241 46.085C36.8241 45.7428 37.1017 45.4433 37.4739 45.4433H40.4773C40.803 45.4433 41.0805 45.672 41.127 45.9914C41.5691 48.9576 42.9193 50.4656 49.0377 50.4656C53.8998 50.4656 55.9669 49.3925 55.9669 46.8827C55.9669 45.4224 55.3853 44.324 47.8245 43.5939C41.4967 42.9779 37.592 41.611 37.592 36.6598Z" fill="white" fill-opacity="0.25"/>
</svg>
