<svg width="24" height="24" viewBox="0 0 24 24" fill="none" xmlns="http://www.w3.org/2000/svg">
<path d="M0.000244141 12.0006C0.000244141 18.6227 5.37759 24 12.0008 24C18.6241 24 24.0002 18.6227 24.0002 12.0006C24.0002 5.37735 18.6241 0 12.0008 0C5.37759 0 0.000244141 5.37735 0.000244141 12.0006ZM7.45531 10.1713C7.45531 10.1713 9.26176 8.36969 11.3671 6.26557C11.5423 6.08912 11.7728 6.0015 12.0032 6.0015C12.2337 6.0015 12.4642 6.08912 12.6394 6.26557C14.7447 8.36849 16.55 10.1713 16.55 10.1713C16.724 10.3454 16.8104 10.5734 16.8104 10.8027C16.8104 11.0332 16.7216 11.2636 16.5452 11.4389C16.1947 11.7905 15.6258 11.793 15.2765 11.4437L12.9035 9.07067L12.9035 17.1043C12.9035 17.6012 12.5002 18.0045 12.0032 18.0045C11.5063 18.0045 11.103 17.6012 11.103 17.1043L11.103 9.07067L8.72763 11.4449C8.38074 11.7917 7.8142 11.7893 7.46251 11.4377C7.28607 11.2612 7.19724 11.0308 7.19604 10.8015C7.19604 10.5722 7.28127 10.3454 7.45531 10.1713Z" fill="#D9D9D9"/>
</svg>
