<svg width="150" height="150" viewBox="0 0 150 150" fill="none" xmlns="http://www.w3.org/2000/svg">
<path d="M150 75C150 116.421 116.421 150 75 150C33.5786 150 0 116.421 0 75C0 33.5786 33.5786 0 75 0C116.421 0 150 33.5786 150 75Z" fill="#D9D9D9"/>
<path fill-rule="evenodd" clip-rule="evenodd" d="M114 29V88.4495C113.073 98.1731 104.511 118.137 77.6744 120.205V60.8368C77.6744 60.7828 77.6784 60.7312 77.6872 60.6779C79.4516 50.0672 89.1518 29 114 29ZM106.518 47.0933V83.9183C105.941 89.9414 100.611 102.308 83.9069 103.589V66.8453C83.9069 66.7911 83.9109 66.7391 83.9199 66.6856C85.0315 60.1033 91.0745 47.0933 106.518 47.0933Z" fill="#303030"/>
<path fill-rule="evenodd" clip-rule="evenodd" d="M71.7302 119.156C73.7301 105.887 69.3015 80.1342 36.2724 75.834C35.7245 75.7627 35.2109 76.1479 35.1625 76.6983C33.9128 90.9012 39.3245 117.779 70.6904 119.965C71.1938 120 71.655 119.655 71.7302 119.156Z" fill="#303030"/>
</svg>
