<svg width="24" height="24" viewBox="0 0 24 24" fill="none" xmlns="http://www.w3.org/2000/svg">
<path fill-rule="evenodd" clip-rule="evenodd" d="M12 24C18.6274 24 24 18.6274 24 12C24 5.37258 18.6274 0 12 0C5.37258 0 0 5.37258 0 12C0 18.6274 5.37258 24 12 24ZM3.22 11.474C4.973 9.72001 9.474 5.21501 9.474 5.21501C9.619 5.07101 9.808 4.99901 9.999 5.00001C10.19 5.00001 10.382 5.07401 10.529 5.22101C10.822 5.51401 10.824 5.98601 10.535 6.27501L5.557 11.254H20.249C20.663 11.254 20.999 11.59 20.999 12.004C20.999 12.418 20.663 12.754 20.249 12.754H5.557L10.533 17.73C10.823 18.021 10.822 18.494 10.529 18.787C10.382 18.934 10.19 19.007 9.999 19.008C9.808 19.008 9.617 18.936 9.472 18.791C9.472 18.791 4.972 14.288 3.22 12.534C3.073 12.388 3 12.196 3 12.004C3 11.812 3.073 11.62 3.22 11.474Z" fill="#D9D9D9"/>
</svg>
