<svg width="24" height="24" viewBox="0 0 24 24" fill="none" xmlns="http://www.w3.org/2000/svg">
<path d="M12.0013 24.0001C18.6234 24.0001 24.0007 18.6227 24.0007 11.9995C24.0007 5.3762 18.6234 5.91016e-05 12.0013 5.91016e-05C5.37808 5.91016e-05 0.000732422 5.3762 0.000732422 11.9995C0.000732422 18.6227 5.37808 24.0001 12.0013 24.0001ZM10.1721 16.545C10.1721 16.545 8.37042 14.7385 6.2663 12.6332C6.08985 12.458 6.00223 12.2275 6.00223 11.9971C6.00223 11.7666 6.08985 11.5361 6.2663 11.3609C8.36922 9.25557 10.1721 7.45032 10.1721 7.45032C10.3461 7.27628 10.5742 7.18986 10.8034 7.18986C11.0339 7.18986 11.2643 7.27868 11.4396 7.45512C11.7913 7.80561 11.7937 8.37455 11.4444 8.72384L9.0714 11.0968L17.105 11.0968C17.6019 11.0968 18.0052 11.5001 18.0052 11.9971C18.0052 12.494 17.6019 12.8973 17.105 12.8973L9.0714 12.8973L11.4456 15.2727C11.7925 15.6196 11.7901 16.1861 11.4384 16.5378C11.2619 16.7142 11.0315 16.8031 10.8022 16.8043C10.573 16.8043 10.3461 16.719 10.1721 16.545Z" fill="#D9D9D9"/>
</svg>
