<svg width="84" height="84" viewBox="0 0 84 84" fill="none" xmlns="http://www.w3.org/2000/svg">
<path fill-rule="evenodd" clip-rule="evenodd" d="M4.04269 0C1.83356 0 0.0426941 1.79086 0.0426941 4V79.75C0.0426941 81.9591 1.83356 83.75 4.04269 83.75H79.7927C82.0018 83.75 83.7927 81.9591 83.7927 79.75V4C83.7927 1.79086 82.0018 0 79.7927 0H4.04269ZM33.9373 37.5111C34.9321 35.8527 35.9688 34.2771 37.0297 32.797C38.612 32.6891 40.2455 32.6324 41.9177 32.6324C43.5572 32.6324 45.1595 32.6869 46.7128 32.7907C47.7835 34.2822 48.8297 35.8709 49.8333 37.5439C50.703 38.9938 51.4995 40.4384 52.2211 41.8635C51.4964 43.2961 50.696 44.7484 49.8216 46.2061C49.0493 47.4935 48.2518 48.7309 47.4374 49.9126C45.6594 50.0503 43.8134 50.1232 41.9177 50.1232C39.9891 50.1232 38.1119 50.0478 36.3056 49.9054C35.5007 48.7358 34.7125 47.5118 33.949 46.2389C33.0679 44.77 32.2619 43.3067 31.5328 41.8635C32.2589 40.4278 33.0609 38.9722 33.9373 37.5111ZM30.9359 35.7108C31.4357 34.8774 31.9469 34.0621 32.4674 33.2664C30.9892 33.4724 29.5759 33.7248 28.2403 34.0182C28.6514 35.2645 29.1343 36.5537 29.6876 37.8734C30.0872 37.1532 30.5034 36.4318 30.9359 35.7108ZM41.9177 29.1324C41.2198 29.1324 40.5272 29.1419 39.8407 29.1604C40.5152 28.3529 41.193 27.5861 41.8699 26.8632C42.5472 27.5852 43.2254 28.3512 43.9003 29.158C43.2447 29.141 42.5835 29.1324 41.9177 29.1324ZM35.1572 29.4353C36.5357 27.6064 37.9535 25.9197 39.3804 24.4013C38.7058 23.7864 38.0375 23.22 37.3798 22.705C35.3303 21.1004 33.4543 20.0515 31.8718 19.5577C30.2855 19.0627 29.1822 19.1762 28.444 19.5864C27.72 19.9888 27.0894 20.8208 26.7505 22.3509C26.4097 23.8892 26.4126 25.9568 26.8305 28.4603C26.9479 29.1637 27.0967 29.8937 27.2766 30.6469C29.7095 30.102 32.3591 29.6908 35.1572 29.4353ZM48.5821 29.4266C47.2027 27.5995 45.7842 25.9149 44.357 24.3988C45.0428 23.7723 45.7222 23.1956 46.3907 22.6722C48.4402 21.0676 50.3162 20.0187 51.8987 19.5249C53.485 19.03 54.5883 19.1434 55.3265 19.5536C56.0505 19.956 56.6811 20.788 57.02 22.3181C57.3608 23.8565 57.3579 25.924 56.94 28.4275C56.8217 29.1363 56.6715 29.8721 56.4897 30.6315C54.0479 30.088 51.3892 29.679 48.5821 29.4266ZM60.3923 29.0038C60.2568 29.8153 60.0849 30.6531 59.8775 31.5133C60.7115 31.765 61.5101 32.0341 62.2696 32.3197C64.9112 33.3127 67.1707 34.5373 68.8012 35.9856C70.4296 37.432 71.5843 39.2503 71.5843 41.3778C71.5843 43.5053 70.4296 45.3236 68.8012 46.77C67.1707 48.2183 64.9112 49.4429 62.2696 50.4359C61.4425 50.7469 60.569 51.0384 59.6539 51.3091C59.9695 52.4966 60.2202 53.6456 60.4039 54.7463C60.8645 57.5056 60.9206 60.0593 60.4489 62.1889C59.9753 64.3266 58.9219 66.209 57.0383 67.2557C55.1689 68.2946 52.9879 68.2278 50.8678 67.5662C48.7439 66.9035 46.4914 65.5926 44.2448 63.8336C43.4586 63.2181 42.6644 62.5408 41.8675 61.8063C41.0825 62.5282 40.3003 63.1945 39.5258 63.8009C37.2791 65.5598 35.0266 66.8707 32.9027 67.5334C30.7826 68.195 28.6016 68.2618 26.7322 67.2229C24.8486 66.1762 23.7952 64.2938 23.3217 62.1561C22.8499 60.0266 22.906 57.4728 23.3666 54.7135C23.5497 53.6167 23.7993 52.4719 24.1133 51.2889C23.2229 51.0239 22.3723 50.7391 21.5657 50.4359C18.9241 49.4429 16.6646 48.2183 15.0341 46.77C13.4057 45.3236 12.251 43.5053 12.251 41.3778C12.251 39.2503 13.4057 37.432 15.0341 35.9856C16.6646 34.5373 18.9241 33.3127 21.5657 32.3197C22.3046 32.0419 23.0805 31.7796 23.8901 31.5338C23.684 30.6779 23.5131 29.8442 23.3783 29.0366C22.9177 26.2772 22.8616 23.7235 23.3333 21.594C23.8069 19.4562 24.8603 17.5739 26.7439 16.5271C28.6133 15.4882 30.7943 15.5551 32.9144 16.2166C35.0383 16.8794 37.2908 18.1902 39.5374 19.9492C40.3081 20.5526 41.0864 21.2153 41.8674 21.933C42.6604 21.2026 43.4507 20.5289 44.2331 19.9164C46.4797 18.1574 48.7322 16.8466 50.8562 16.1838C52.9763 15.5223 55.1572 15.4554 57.0266 16.4943C58.9102 17.5411 59.9636 19.4234 60.4372 21.5612C60.9089 23.6907 60.8528 26.2445 60.3923 29.0038ZM51.2731 33.2533C52.7596 33.458 54.1811 33.7098 55.5245 34.0028C55.1107 35.2554 54.6245 36.5514 54.0673 37.8779C53.6725 37.1671 53.2615 36.4551 52.8347 35.7435C52.3252 34.8942 51.804 34.0635 51.2731 33.2533ZM58.9201 34.8803C58.1908 37.1225 57.2526 39.4698 56.1186 41.8627C57.1057 43.9435 57.9449 45.9898 58.6274 47.9628C59.4762 47.7126 60.2812 47.4443 61.038 47.1598C63.4496 46.2532 65.2804 45.216 66.4769 44.1532C67.6754 43.0887 68.0843 42.1468 68.0843 41.3778C68.0843 40.6088 67.6754 39.6669 66.4769 38.6024C65.2804 37.5396 63.4496 36.5024 61.038 35.5958C60.3687 35.3442 59.6617 35.1053 58.9201 34.8803ZM52.823 48.0065C53.2546 47.2869 53.67 46.567 54.0689 45.8481C54.4935 46.8578 54.8771 47.8498 55.2189 48.8185C54.1776 49.0388 53.0907 49.2345 51.9643 49.403C52.2539 48.9435 52.5402 48.4779 52.823 48.0065ZM49.361 53.2545C51.7956 53.0081 54.1114 52.643 56.2623 52.1742C56.5548 53.2708 56.785 54.3236 56.9517 55.3225C57.3696 57.8261 57.3725 59.8936 57.0317 61.4319C56.6928 62.962 56.0622 63.7941 55.3382 64.1964C54.6 64.6066 53.4967 64.7201 51.9104 64.2251C50.3279 63.7313 48.4519 62.6824 46.4024 61.0778C45.7298 60.5512 45.0462 59.9708 44.3561 59.3398C46.0539 57.5352 47.7393 55.4921 49.361 53.2545ZM44.7228 53.5719C43.7779 54.754 42.823 55.8576 41.8699 56.8744C40.9173 55.8563 39.963 54.7515 39.0188 53.5684C39.9732 53.6047 40.9403 53.6232 41.9177 53.6232C42.863 53.6232 43.7987 53.6058 44.7228 53.5719ZM30.9475 48.0393C31.2206 48.4946 31.4971 48.9445 31.7767 49.3889C30.6583 49.2197 29.5792 49.0237 28.5454 48.8034C28.8846 47.841 29.265 46.8556 29.686 45.8527C30.0896 46.5809 30.5102 47.3103 30.9475 48.0393ZM34.3788 53.2448C31.9529 52.9958 29.6459 52.6289 27.5035 52.159C27.2133 53.2493 26.9847 54.2961 26.8188 55.2897C26.401 57.7933 26.3981 59.8608 26.7388 61.3991C27.0778 62.9292 27.7084 63.7613 28.4324 64.1636C29.1705 64.5738 30.2738 64.6873 31.8601 64.1923C33.4426 63.6985 35.3186 62.6496 37.3681 61.045C38.0299 60.5269 38.7025 59.9566 39.3813 59.3373C37.6839 57.5299 35.9993 55.4844 34.3788 53.2448ZM22.7973 47.1598C23.5335 47.4366 24.3154 47.698 25.1389 47.9424C25.8186 45.9759 26.654 43.9365 27.6364 41.8627C26.5073 39.4769 25.573 37.1368 24.8465 34.9012C24.1299 35.12 23.4459 35.352 22.7973 35.5958C20.3857 36.5024 18.5549 37.5396 17.3584 38.6024C16.1599 39.6669 15.751 40.6088 15.751 41.3778C15.751 42.1468 16.1599 43.0887 17.3584 44.1532C18.5549 45.216 20.3857 46.2532 22.7973 47.1598ZM38.5919 41.8749C38.5919 40.2056 40.0173 38.7394 41.9177 38.7394C43.818 38.7394 45.2434 40.2056 45.2434 41.8749C45.2434 43.5442 43.818 45.0104 41.9177 45.0104C40.0173 45.0104 38.5919 43.5442 38.5919 41.8749ZM41.9177 35.2394C38.2115 35.2394 35.0919 38.1478 35.0919 41.8749C35.0919 45.602 38.2115 48.5104 41.9177 48.5104C45.6238 48.5104 48.7434 45.602 48.7434 41.8749C48.7434 38.1478 45.6238 35.2394 41.9177 35.2394Z" fill="white" fill-opacity="0.25"/>
</svg>
