<svg width="56" height="65" viewBox="0 0 56 65" fill="none" xmlns="http://www.w3.org/2000/svg">
<path d="M0.940376 52.1962L5.03712 50.616L26.9648 59.0748C27.2912 59.1982 27.6451 59.2623 28.0037 59.2628C28.3547 59.2628 28.7011 59.2001 29.0204 59.0797L50.9616 50.616L55.0583 52.1962C55.6332 52.4216 56 52.9009 56 53.4278C56 53.9547 55.6332 54.4345 55.0583 54.6599L28.5867 64.871C28.2152 65.0147 27.7863 65.0147 27.4147 64.871L0.943169 54.6599C0.368313 54.435 0.00148385 53.9552 0.000898789 53.4283C0.000898789 52.9014 0.367141 52.4216 0.941997 52.1962H0.940376Z" fill="#232323"/>
<path d="M33.6001 38.2919C34.3736 38.2919 35.0006 38.811 35.0006 39.4521C35.0006 40.0931 34.3736 40.6122 33.6001 40.6122H22.3988C21.6253 40.6122 20.9989 40.0931 20.9989 39.4521C20.9989 38.811 21.6259 38.2919 22.3994 38.2919H33.6001Z" fill="#E7EA47"/>
<path d="M18.1996 34.8108C18.1996 34.5029 18.3466 34.2077 18.6092 33.9901C18.8723 33.7725 19.228 33.6501 19.5995 33.6501H36.4011C37.1747 33.6501 37.8011 34.1698 37.8011 34.8108C37.8011 35.4514 37.1747 35.971 36.4011 35.971H19.5995C19.228 35.971 18.8723 35.8486 18.6092 35.6311C18.3467 35.4135 18.1996 35.1182 18.1996 34.8108Z" fill="#E7EA47"/>
<path d="M0.938952 44.0567L5.02565 42.495L26.9728 50.8693C27.6256 51.1204 28.3786 51.1204 29.0314 50.8693L50.9756 42.495L55.0623 44.0567C55.6342 44.2772 55.9999 44.7522 55.9999 45.2752C55.9999 45.7978 55.6342 46.2732 55.0623 46.4932L28.5877 56.6047C28.2162 56.747 27.7878 56.747 27.4157 56.6047L0.941131 46.4957C0.367445 46.2762 2.39444e-05 45.8002 2.39444e-05 45.2767C-0.000562013 44.7527 0.366273 44.2768 0.939959 44.0568L0.938952 44.0567Z" fill="#727171"/>
<path d="M25.1992 13.9245C25.1992 15.2062 26.4533 16.2449 27.9997 16.2449C29.5461 16.2449 30.8002 15.2061 30.8002 13.9245C30.8002 12.6425 29.5461 11.6036 27.9997 11.6036C26.4533 11.6036 25.1992 12.6424 25.1992 13.9245Z" fill="#D9D9D9"/>
<path d="M55.0431 38.3865L28.5806 48.4814C28.209 48.6227 27.7813 48.6227 27.4097 48.4814L0.947147 38.3865C0.374046 38.1665 0.00722504 37.691 0.00722504 37.168C0.00722504 36.645 0.374046 36.169 0.947147 35.9495L17.9183 29.4725C18.0994 29.9723 18.1937 30.4904 18.1984 31.012V31.5423C17.0651 31.8702 16.1575 32.586 15.7056 33.5078C15.2538 34.429 15.3019 35.4669 15.8381 36.3565C16.3742 37.2462 17.3465 37.9024 18.5061 38.1567C18.2189 38.7371 18.131 39.3718 18.2512 39.991C18.4516 40.8331 19.0042 41.5897 19.811 42.1279C20.6179 42.6655 21.6275 42.9505 22.6631 42.9326H33.3323C34.3677 42.9506 35.378 42.6655 36.1856 42.1269C36.9925 41.5888 37.5451 40.8322 37.7454 39.99C37.865 39.3708 37.7765 38.7366 37.4893 38.1568C38.6496 37.9023 39.6212 37.2462 40.1573 36.3566C40.6935 35.4669 40.7416 34.429 40.2898 33.5078C39.8386 32.5861 38.9303 31.8702 37.7976 31.5424V31.2131C37.7999 30.6279 37.8996 30.0456 38.0929 29.4828L55.0431 35.9471C55.6174 36.1666 55.986 36.6425 55.986 37.1665C55.986 37.691 55.6174 38.167 55.0431 38.3865Z" fill="#D9D9D9"/>
<path d="M44.8017 13.9245C44.8128 18.1224 42.5268 22.0978 38.5866 24.7353C36.2696 26.3335 34.9511 28.7157 35.0009 31.2137V31.3298H20.9991V31.0126C20.9564 28.5242 19.5781 26.1801 17.2399 24.6182C12.8268 21.5684 10.6 16.861 11.3371 12.1386C12.0737 7.41579 15.6718 3.33301 20.876 1.31375C26.0801 -0.705517 32.168 -0.38066 37.016 2.17527C41.8645 4.73074 44.8011 9.16262 44.8011 13.9248L44.8017 13.9245ZM38.7682 10.9612V10.9607C38.5977 10.5314 38.3891 10.1127 38.1441 9.70873L38.2074 9.5776H38.2068C38.5502 8.84963 38.4072 8.02605 37.8306 7.40779C37.2622 6.79636 36.6012 6.24808 35.8629 5.77753C35.1175 5.29917 34.123 5.18068 33.2447 5.46527L33.0865 5.51772C32.5995 5.31424 32.0944 5.14135 31.5758 5.00002L31.5002 4.87376C31.1211 4.15744 30.3165 3.65918 29.3807 3.56016C28.4589 3.46497 27.5272 3.46497 26.6054 3.56016C25.6719 3.66166 24.8703 4.15943 24.4911 4.87376L24.4237 5.00585H24.4243C23.9057 5.14717 23.4005 5.32006 22.9136 5.52355L22.7554 5.4711C21.877 5.18603 20.8826 5.30502 20.1372 5.78336C19.3988 6.25395 18.7379 6.80223 18.1695 7.41362C17.5928 8.03184 17.4499 8.85552 17.7933 9.58344L17.8565 9.71456H17.856C17.611 10.1186 17.4024 10.5372 17.2319 10.9665L17.0725 11.0233H17.0719C16.2081 11.3375 15.6063 12.0048 15.4874 12.7804C15.3696 13.5438 15.3696 14.3164 15.4874 15.0799C15.607 15.8559 16.2082 16.5226 17.0719 16.8379L17.2313 16.8938H17.2319C17.4024 17.3236 17.611 17.7417 17.856 18.1457L17.7927 18.2768H17.7933C17.4499 19.0048 17.5928 19.8284 18.1695 20.4467C18.7379 21.0581 19.3989 21.6064 20.1372 22.0769C20.8826 22.5553 21.8771 22.6738 22.7554 22.3892L22.9136 22.3367C23.4006 22.5402 23.9057 22.7131 24.4243 22.8544L24.4928 22.9865C24.872 23.7028 25.6765 24.2016 26.6124 24.3001C27.5336 24.3977 28.4664 24.3977 29.3877 24.3001C30.3235 24.201 31.1286 23.7023 31.509 22.9865L31.5764 22.8544H31.5758C32.0944 22.7131 32.5996 22.5402 33.0865 22.3367L33.2447 22.3892C34.1231 22.6742 35.1175 22.5557 35.8629 22.0769C36.6013 21.6063 37.2623 21.058 37.8306 20.4467C38.4073 19.8284 38.5502 19.0048 38.2068 18.2768L38.1436 18.1457H38.1441C38.3891 17.7417 38.5977 17.3235 38.7682 16.8938L38.9276 16.837H38.9282C39.792 16.5228 40.3938 15.856 40.5127 15.0799C40.6305 14.3165 40.6305 13.5439 40.5127 12.7804C40.3943 12.001 39.7896 11.3313 38.9212 11.0165L38.7682 10.9612Z" fill="#E7EA47"/>
<path d="M18.1796 14.6991L18.1818 14.7005H18.1796V14.6991Z" fill="black"/>
<path d="M37.8005 13.9245C37.8005 14.21 37.7776 14.4961 37.7337 14.7797L37.0615 14.97V14.9696C36.666 15.1104 36.3706 15.3945 36.2605 15.7393C36.0671 16.3493 35.7747 16.9345 35.3909 17.4798C35.1752 17.7877 35.1418 18.1617 35.3012 18.4924L35.6065 19.1271C35.3657 19.2932 35.1401 19.4729 34.9303 19.6657C34.6865 19.8672 34.4275 20.0561 34.155 20.231L33.5151 19.9736V19.9731C33.3498 19.9187 33.1741 19.8905 32.9971 19.891C32.751 19.891 32.5095 19.9454 32.2968 20.0474C31.6393 20.3655 30.9326 20.6078 30.1966 20.7681C29.7806 20.8594 29.4383 21.1042 29.2684 21.432L28.9437 22.0609H28.9432C28.6297 22.0366 28.3144 22.0322 27.9997 22.0468C27.6545 22.0463 27.31 22.0278 26.9678 21.9909L26.7381 21.4339C26.5681 21.1066 26.2259 20.8618 25.8099 20.7705C25.0738 20.6098 24.3671 20.3674 23.7096 20.0498C23.3375 19.8706 22.8869 19.8434 22.4873 19.9755L21.7214 20.2285C21.5215 20.0289 21.3041 19.8415 21.0721 19.6681C20.8283 19.4656 20.601 19.251 20.39 19.0251L20.7006 18.4948C20.8605 18.1636 20.8271 17.7901 20.6109 17.4818C20.2277 16.9369 19.9353 16.3517 19.7419 15.7412C19.6317 15.3964 19.3364 15.1128 18.9408 14.972L18.2605 14.7297C18.2206 14.4626 18.2001 14.1935 18.1989 13.9245C18.1989 13.6384 18.2218 13.3529 18.2657 13.0693L18.9379 12.8789C19.3334 12.7381 19.6288 12.4544 19.7389 12.1096C19.9323 11.4992 20.2247 10.914 20.6086 10.3691C20.8242 10.0607 20.8576 9.68728 20.6982 9.35608L20.3929 8.72135C20.6338 8.55575 20.8594 8.37558 21.0691 8.18278C21.3129 7.98123 21.5719 7.79233 21.8444 7.61797L22.4843 7.87536C22.884 8.00745 23.3346 7.98026 23.7067 7.80106C24.3642 7.48345 25.0709 7.24112 25.8069 7.08037C26.223 6.98955 26.5658 6.74479 26.7351 6.41699L27.0598 5.78809H27.0603C27.3727 5.81237 27.6868 5.81722 27.9997 5.80168C28.3448 5.80217 28.6894 5.82062 29.0316 5.85753L29.2613 6.41456C29.4313 6.74237 29.7735 6.98714 30.1896 7.07843C30.9256 7.23869 31.6323 7.48102 32.2898 7.79863C32.6619 7.97783 33.1125 8.00552 33.5121 7.87294L34.278 7.61991C34.4779 7.81952 34.6953 8.00697 34.9273 8.18034C35.1711 8.38285 35.3984 8.59751 35.6094 8.82333L35.2988 9.35364C35.1389 9.68485 35.1723 10.0583 35.3885 10.3667C35.7717 10.9116 36.0641 11.4973 36.2575 12.1072C36.3677 12.452 36.663 12.7356 37.0586 12.8765L37.8174 13.1455C37.7887 13.4044 37.7829 13.6647 37.8005 13.9245ZM27.9997 9.28274C26.5142 9.28274 25.0897 9.77178 24.0396 10.6426C22.9895 11.5129 22.3994 12.6934 22.3994 13.9245C22.3994 15.1551 22.9895 16.3357 24.0396 17.2064C25.0897 18.0766 26.5143 18.5657 27.9997 18.5657C29.4852 18.5657 30.9097 18.0767 31.9598 17.2064C33.0099 16.3356 33.6001 15.155 33.6001 13.9245C33.6001 12.6934 33.01 11.5129 31.9598 10.6426C30.9097 9.77185 29.4852 9.28274 27.9997 9.28274Z" fill="#D9D9D9"/>
</svg>
