<svg width="57" height="57" viewBox="0 0 57 57" fill="none" xmlns="http://www.w3.org/2000/svg">
<path d="M29.0306 2.22367C28.749 2.0829 28.4177 2.0829 28.1361 2.22367L3.95554 14.314C3.21849 14.6825 3.21849 15.7343 3.95554 16.1028L28.1361 28.1931C28.4177 28.3339 28.749 28.3339 29.0306 28.1931L53.2111 16.1028C53.9482 15.7343 53.9482 14.6825 53.2111 14.314L29.0306 2.22367Z" stroke="#453D4B" stroke-width="4" stroke-linecap="round" stroke-linejoin="round"/>
<path d="M2.16669 28.4167L28.1361 41.4014C28.4177 41.5422 28.749 41.5422 29.0306 41.4014L55 28.4167" stroke="#453D4B" stroke-opacity="0.66" stroke-width="4" stroke-linecap="round" stroke-linejoin="round"/>
<path d="M2.16669 41.6251L28.1361 54.6098C28.4177 54.7505 28.749 54.7505 29.0306 54.6098L55 41.6251" stroke="#453D4B" stroke-opacity="0.34" stroke-width="4" stroke-linecap="round" stroke-linejoin="round"/>
</svg>
