<svg width="84" height="85" viewBox="0 0 84 85" fill="none" xmlns="http://www.w3.org/2000/svg">
<path d="M0 42.5V80.375C0 82.5841 1.79086 84.375 4 84.375H79.75C81.9591 84.375 83.75 82.5841 83.75 80.375V4.625C83.75 2.41586 81.9591 0.625 79.75 0.625H4C1.79086 0.625 0 2.41586 0 4.625V42.5ZM50.8188 69.1116C51.1957 68.8987 52.602 68.0856 53.9315 67.3144L56.3393 65.9186L56.8453 66.6654C57.5502 67.7402 59.0891 69.2163 60.0208 69.7083C62.6939 71.1181 66.3614 70.9192 68.169 69.2965C68.8425 68.7277 69.2647 67.8832 69.2647 66.941C69.2647 66.8852 69.2647 66.8329 69.2613 66.777V66.784C69.2613 65.8139 69.1391 65.3882 68.6331 64.6554C67.9841 63.7271 66.6545 62.9455 62.8788 61.3054C58.5587 59.4454 56.6988 58.2904 54.9958 56.4548C53.9699 55.2893 53.1778 53.8865 52.7171 52.3441L52.6962 52.2673C52.3786 51.0844 52.2984 48.1182 52.5496 46.9248C53.4395 42.7478 56.5906 39.8409 61.1375 38.9755C62.6136 38.6964 66.0439 38.801 67.492 39.1605C69.6207 39.6909 71.2398 40.6401 72.7299 42.1825C73.5011 43.006 74.6457 44.5065 74.7364 44.8694C74.7643 44.9741 71.1212 47.4168 68.9158 48.7882C68.8355 48.8406 68.5145 48.4951 68.1585 47.9647C67.0768 46.3944 65.9496 45.7174 64.2223 45.5987C61.6819 45.4243 60.0487 46.7538 60.0627 48.9732C60.0627 49.0116 60.0592 49.0569 60.0592 49.1023C60.0592 49.6292 60.1918 50.1247 60.4256 50.5574L60.4186 50.54C60.977 51.6951 62.0169 52.3895 65.2692 53.7958C71.2678 56.3781 73.8326 58.0775 75.4273 60.4958C77.207 63.1932 77.6083 67.5029 76.3974 70.7063C75.0714 74.1889 71.7738 76.5548 67.1326 77.3365C65.6984 77.5912 62.296 77.5529 60.7536 77.2737C57.3897 76.6735 54.2002 75.0124 52.2321 72.8315C51.4609 71.9835 49.9569 69.7606 50.0511 69.6036C50.0895 69.5478 50.4349 69.3349 50.8188 69.1116ZM18.3482 42.7268C18.3482 40.8634 18.3866 39.307 18.439 39.2721C18.4808 39.2163 25.1145 39.1884 33.1545 39.2023L47.7933 39.2442L47.8317 42.6605L47.8596 46.0908H36.9547V77.0643H29.2427V46.0908H18.3482V42.7268Z" fill="white" fill-opacity="0.25"/>
</svg>
