<svg width="58" height="57" viewBox="0 0 58 57" fill="none" xmlns="http://www.w3.org/2000/svg">
<path d="M14.0506 11.0784C12.9534 9.16037 10.5089 8.495 8.59088 9.59232C6.67284 10.6896 6.00746 13.134 7.10479 15.0521C7.28065 15.3596 7.49662 15.6423 7.74693 15.8929L20.8146 33.0029L23.8608 36.8417L14.9198 25.1349C13.8225 23.2168 11.378 22.5515 9.46 23.6488C7.54195 24.7461 6.87657 27.1905 7.97389 29.1086C8.14976 29.4161 8.36573 29.6988 8.61604 29.9494L17.5571 41.656L24.6626 50.6066C30.8574 57.7149 41.1097 57.3268 48.2162 51.1335C52.3006 47.5433 54.9273 42.5804 55.599 37.1841C56.0362 32.3881 56.5134 19.8461 56.5134 19.8461C56.3065 16.8991 52.9607 14.7205 52.5296 16.2425L46.9842 27.2991L43.1704 22.5145L27.9127 3.01496C26.8155 1.09691 24.371 0.431535 22.4529 1.52886C20.5349 2.62618 19.8695 5.07057 20.9668 6.98862C21.1427 7.29615 21.3587 7.57886 21.609 7.8294L26.4234 14.1331L33.7019 23.7421L18.4965 3.70821C17.3993 1.79016 14.9548 1.12478 13.0367 2.22211C11.1187 3.31943 10.4533 5.76382 11.5505 7.68187C11.7264 7.9894 11.9423 8.27211 12.1926 8.52276L28.8175 30.0687" fill="#FADCBC"/>
<path d="M14.0506 11.0784C12.9534 9.16037 10.5089 8.495 8.59088 9.59232C6.67284 10.6896 6.00746 13.134 7.10479 15.0521C7.28065 15.3596 7.49662 15.6423 7.74693 15.8929L20.8146 33.0029L23.8608 36.8417L14.9198 25.1349C13.8225 23.2168 11.378 22.5515 9.46 23.6488C7.54195 24.7461 6.87657 27.1905 7.97389 29.1086C8.14976 29.4161 8.36573 29.6988 8.61604 29.9494L17.5571 41.656L24.6626 50.6066C30.8574 57.7149 41.1097 57.3268 48.2162 51.1335C52.3006 47.5433 54.9273 42.5804 55.599 37.1841C56.0362 32.3881 56.5134 19.8461 56.5134 19.8461C56.3065 16.8991 52.9607 14.7205 52.5296 16.2425L46.9842 27.2991L43.1704 22.5145L27.9127 3.01496C26.8155 1.09691 24.371 0.431535 22.4529 1.52886C20.5349 2.62618 19.8695 5.07057 20.9668 6.98862C21.1427 7.29615 21.3587 7.57886 21.609 7.8294L26.4234 14.1331L33.7019 23.7421L18.4965 3.70821C17.3993 1.79016 14.9548 1.12478 13.0367 2.22211C11.1187 3.31943 10.4533 5.76382 11.5505 7.68187C11.7264 7.9894 11.9423 8.27211 12.1926 8.52276L28.8175 30.0687" stroke="black" stroke-linecap="round" stroke-linejoin="round"/>
<path d="M6.13586 37.8553C6.13586 40.7633 8.11544 43.1162 10.5618 43.1162" stroke="#D9D9D9" stroke-miterlimit="10" stroke-linecap="round" stroke-linejoin="round"/>
<path d="M0.910767 37.3625C0.910767 43.7034 5.22731 48.8345 10.5617 48.8345" stroke="#D9D9D9" stroke-miterlimit="10" stroke-linecap="round" stroke-linejoin="round"/>
<path d="M44.197 13.3411C44.197 10.4331 42.2174 8.0802 39.7711 8.0802" stroke="#D9D9D9" stroke-miterlimit="10" stroke-linecap="round" stroke-linejoin="round"/>
<path d="M49.422 13.8336C49.422 7.49273 45.1055 2.36169 39.7711 2.36169" stroke="#D9D9D9" stroke-miterlimit="10" stroke-linecap="round" stroke-linejoin="round"/>
</svg>
