<svg width="58" height="59" viewBox="0 0 58 59" fill="none" xmlns="http://www.w3.org/2000/svg">
<path d="M7.2251 37.4937C7.2251 40.4016 9.20468 42.7546 11.651 42.7546" stroke="#453D4B" stroke-opacity="0.5" stroke-width="3" stroke-miterlimit="10" stroke-linecap="round" stroke-linejoin="round"/>
<path d="M2 37.0009C2 43.3417 6.31654 48.4728 11.651 48.4728" stroke="#453D4B" stroke-opacity="0.5" stroke-width="3" stroke-miterlimit="10" stroke-linecap="round" stroke-linejoin="round"/>
<path d="M45.2862 12.9793C45.2862 10.0714 43.3067 7.71844 40.8604 7.71844" stroke="#453D4B" stroke-opacity="0.5" stroke-width="3" stroke-miterlimit="10" stroke-linecap="round" stroke-linejoin="round"/>
<path d="M50.5113 13.4719C50.5113 7.13104 46.1948 2 40.8604 2" stroke="#453D4B" stroke-opacity="0.5" stroke-width="3" stroke-miterlimit="10" stroke-linecap="round" stroke-linejoin="round"/>
<path d="M13.4747 12.0784C12.3775 10.1604 9.93301 9.495 8.01496 10.5923C6.09691 11.6896 5.43153 14.134 6.52886 16.0521C6.70472 16.3596 6.92069 16.6423 7.171 16.8929L20.2387 34.0029L23.2849 37.8417L14.3438 26.1349C13.2466 24.2168 10.8021 23.5515 8.88407 24.6488C6.96602 25.7461 6.30064 28.1905 7.39797 30.1086C7.57383 30.4161 7.7898 30.6988 8.04011 30.9494L16.9812 42.656L24.0867 51.6066C30.2815 58.7149 40.5337 58.3268 47.6403 52.1335C51.7246 48.5433 54.3514 43.5804 55.0231 38.1841C55.4602 33.3881 55.9375 20.8461 55.9375 20.8461C55.7306 17.8991 52.3848 15.7205 51.9536 17.2425L46.4082 28.2991L42.5944 23.5145L27.3367 4.01496C26.2395 2.09691 23.795 1.43153 21.877 2.52886C19.9589 3.62618 19.2936 6.07057 20.3909 7.98862C20.5667 8.29615 20.7827 8.57886 21.033 8.8294L25.8475 15.1331L33.126 24.7421L17.9205 4.70821C16.8233 2.79016 14.3788 2.12478 12.4608 3.22211C10.5427 4.31943 9.87737 6.76382 10.9746 8.68187C11.1504 8.9894 11.3664 9.27211 11.6167 9.52276L28.2415 31.0687" stroke="#453D4B" stroke-width="3" stroke-linecap="round" stroke-linejoin="round"/>
</svg>
